<?xml version="1.0" encoding="UTF-8"?>
<svg width="36px" height="36px" viewBox="0 0 36 36" version="1.1" xmlns="http://www.w3.org/2000/svg" xmlns:xlink="http://www.w3.org/1999/xlink">
    <!-- Generator: Sketch 55.1 (78136) - https://sketchapp.com -->
    <title>1</title>
    <desc>Created with Sketch.</desc>
    <g id="产品空白页提示" stroke="none" stroke-width="1" fill="none" fill-rule="evenodd">
        <g id="产品空白提示复制-3" transform="translate(-690.000000, -481.000000)">
            <g id="编组-2" transform="translate(320.000000, 481.000000)">
                <g id="axure" transform="translate(309.000000, 0.000000)">
                    <g id="文档/rp/灰" transform="translate(61.000000, 0.000000)">
                        <g id="axure">
                            <rect id="矩形" fill="#CD58F7" x="0" y="0" width="36" height="36" rx="4"></rect>
                            <path d="M22.1238806,12.7516304 C22.1238806,14.2581522 21.3179104,15.1728261 20.0820896,15.5494565 L22.5,19.7461957 L20.7268657,19.7461957 L18.4701493,15.7646739 L16.858209,15.7646739 L16.858209,19.8 L15.3,19.8 L15.3,9.9 L18.5238806,9.9 C20.5656716,9.9 22.1238806,10.5994565 22.1238806,12.7516304 Z M18.3626866,14.5271739 C19.8134328,14.5271739 20.5656716,13.9353261 20.5656716,12.7516304 C20.5656716,11.5679348 19.8134328,11.1375 18.3626866,11.1375 L16.858209,11.1375 L16.858209,14.5271739 L18.3626866,14.5271739 Z M27.1,9.9 C29.15,9.9 30.6,10.6532609 30.6,12.8592391 C30.6,15.011413 29.15,16.0336957 27.15,16.0336957 L25.75,16.0336957 L25.75,19.8 L24.3,19.8 L24.3,9.9 L27.1,9.9 Z M27,14.7961957 C28.45,14.7961957 29.15,14.1505435 29.2,12.8592391 C29.2,11.5679348 28.4,11.1375 26.95,11.1375 L25.75,11.1375 L25.75,14.7961957 L27,14.7961957 Z" id="合并形状" fill="#FFFFFF"></path>
                            <rect id="矩形" fill="#F0F2F5" x="6.3" y="0" width="2.7" height="36"></rect>
                            <path d="M0.5,26.0035419 L0.5,32 C0.5,33.9329966 2.06700338,35.5 4,35.5 L32,35.5 C33.9329966,35.5 35.5,33.9329966 35.5,32 L35.5,26.0035419 L0.5,26.0035419 Z" id="矩形-copy-15" stroke="#CD58F7" fill="#FFFFFF"></path>
                            <path d="M8.757,27.774 L9.954,27.774 L12.411,34.2 L11.286,34.2 L10.701,32.589 L8.01,32.589 L7.425,34.2 L6.3,34.2 L8.757,27.774 Z M8.325,31.725 L10.386,31.725 L9.378,28.908 L9.342,28.908 L8.325,31.725 Z M12.663,29.547 L13.86,29.547 L14.832,30.969 L15.795,29.547 L16.992,29.547 L15.39,31.725 L17.199,34.2 L15.993,34.2 L14.832,32.481 L13.662,34.2 L12.456,34.2 L14.265,31.725 L12.663,29.547 Z M17.784,29.547 L18.81,29.547 L18.81,32.382 C18.81,32.76 18.882,33.03 19.044,33.21 C19.206,33.381 19.458,33.471 19.818,33.471 C20.043,33.471 20.259,33.372 20.466,33.183 C20.673,32.985 20.826,32.724 20.916,32.391 L20.916,29.547 L21.942,29.547 L21.942,34.2 L20.916,34.2 L20.916,33.597 C20.52,34.083 20.034,34.326 19.458,34.326 C18.342,34.326 17.784,33.696 17.784,32.445 L17.784,29.547 Z M25.218,29.421 C25.443,29.421 25.641,29.457 25.803,29.538 L25.803,30.564 C25.569,30.492 25.353,30.465 25.137,30.465 C24.867,30.465 24.624,30.564 24.408,30.78 C24.156,31.023 24.039,31.338 24.039,31.734 L24.039,34.2 L23.022,34.2 L23.022,29.547 L24.039,29.547 L24.039,30.213 C24.165,29.979 24.309,29.799 24.48,29.673 C24.687,29.502 24.93,29.421 25.218,29.421 Z M28.368,29.421 C29.133,29.421 29.718,29.673 30.123,30.195 C30.492,30.663 30.681,31.32 30.681,32.157 L27.198,32.157 C27.234,32.589 27.351,32.922 27.549,33.147 C27.747,33.372 28.035,33.489 28.404,33.489 C28.719,33.489 28.971,33.417 29.169,33.273 C29.322,33.156 29.457,32.967 29.583,32.706 L30.609,32.706 C30.501,33.138 30.285,33.507 29.961,33.795 C29.547,34.146 29.034,34.326 28.413,34.326 C27.72,34.326 27.171,34.11 26.766,33.687 C26.334,33.246 26.118,32.643 26.118,31.869 C26.118,31.176 26.316,30.6 26.73,30.132 C27.126,29.655 27.675,29.421 28.368,29.421 Z M28.395,30.258 C28.053,30.258 27.792,30.348 27.594,30.546 C27.405,30.735 27.279,31.014 27.216,31.383 L29.61,31.383 C29.52,30.627 29.115,30.258 28.395,30.258 Z" id="Axure" fill="#CD58F7" fill-rule="nonzero"></path>
                        </g>
                    </g>
                </g>
            </g>
        </g>
    </g>
</svg>