<?xml version="1.0" encoding="utf-8"?>
<svg version="1.1" xmlns:xlink="http://www.w3.org/1999/xlink" width="16px" height="16px" xmlns="http://www.w3.org/2000/svg">
  <g transform="matrix(1 0 0 1 -1137 -222 )">
    <path d="M 1145 223  C 1148.92 223  1152 226.08  1152 230  C 1152 233.92  1148.92 237  1145 237  C 1141.08 237  1138 233.92  1138 230  C 1138 226.08  1141.08 223  1145 223  Z " fill-rule="nonzero" fill="#ffffff" stroke="none" fill-opacity="0" />
    <path d="M 1145 223  C 1148.92 223  1152 226.08  1152 230  C 1152 233.92  1148.92 237  1145 237  C 1141.08 237  1138 233.92  1138 230  C 1138 226.08  1141.08 223  1145 223  Z " stroke-width="2" stroke="#000000" fill="none" />
  </g>
</svg>