<?xml version="1.0" encoding="utf-8"?>
<svg version="1.1" xmlns:xlink="http://www.w3.org/1999/xlink" width="40px" height="50px" xmlns="http://www.w3.org/2000/svg">
  <defs>
    <filter x="444px" y="612px" width="40px" height="50px" filterUnits="userSpaceOnUse" id="filter27">
      <feOffset dx="1" dy="1" in="SourceAlpha" result="shadowOffsetInner" />
      <feGaussianBlur stdDeviation="2.5" in="shadowOffsetInner" result="shadowGaussian" />
      <feComposite in2="shadowGaussian" operator="atop" in="SourceAlpha" result="shadowComposite" />
      <feColorMatrix type="matrix" values="0 0 0 0 0  0 0 0 0 0  0 0 0 0 0  0 0 0 0.698039215686274 0  " in="shadowComposite" />
    </filter>
    <g id="widget28">
      <path d="M 463 655.036928468354  C 457.2 645.40734059591  448.5 639.629587872444  448.5 630  C 448.5 624.985714285714  451.4 616.5  463 616.5  C 474.6 616.5  477.5 624.985714285714  477.5 630  C 477.5 639.629587872444  468.8 645.40734059591  463 655.036928468354  Z " fill-rule="nonzero" fill="#009dd9" stroke="none" />
      <path d="M 463 656  C 457 646  448 640  448 630  C 448 624.8  451 616  463 616  C 475 616  478 624.8  478 630  C 478 640  469 646  463 656  Z M 463 654.073856936707  C 468.6 644.81468119182  477 639.259175744887  477 630  C 477 625.171428571429  474.2 617  463 617  C 451.8 617  449 625.171428571429  449 630  C 449 639.259175744887  457.4 644.81468119182  463 654.073856936707  Z " fill-rule="nonzero" fill="#ffffff" stroke="none" />
    </g>
  </defs>
  <g transform="matrix(1 0 0 1 -444 -612 )">
    <use xlink:href="#widget28" filter="url(#filter27)" />
    <use xlink:href="#widget28" />
  </g>
</svg>