<?xml version="1.0" encoding="utf-8"?>
<svg version="1.1" xmlns:xlink="http://www.w3.org/1999/xlink" width="6px" height="14px" xmlns="http://www.w3.org/2000/svg">
  <g transform="matrix(1 0 0 1 -492 -1545 )">
    <path d="M 5.89690721649484 6.67735470941884  C 5.96563573883162 6.77087508350033  6 6.87842351369405  6 7  C 6 7.12157648630594  5.96563573883162 7.22912491649967  5.89690721649484 7.32264529058116  L 1.09278350515464 13.8597194388778  C 1.02405498281787 13.9532398129593  0.945017182130584 14  0.855670103092783 14  C 0.766323024054983 14  0.687285223367698 13.9532398129593  0.618556701030928 13.8597194388778  L 0.103092783505155 13.1583166332665  C 0.0343642611683849 13.064796259185  0 12.9572478289913  0 12.8356713426854  C 0 12.7140948563794  0.0343642611683849 12.6065464261857  0.103092783505155 12.5130260521042  L 4.15463917525773 7  L 0.103092783505155 1.48697394789579  C 0.0343642611683849 1.39345357381429  0 1.28590514362057  0 1.16432865731463  C 0 1.04275217100868  0.0343642611683849 0.935203740814962  0.103092783505155 0.841683366733466  L 0.618556701030928 0.140280561122245  C 0.687285223367698 0.0467601870407477  0.766323024054983 0  0.855670103092783 0  C 0.945017182130584 0  1.02405498281787 0.0467601870407477  1.09278350515464 0.140280561122245  L 5.89690721649484 6.67735470941884  Z " fill-rule="nonzero" fill="#b0b0b0" stroke="none" transform="matrix(1 0 0 1 492 1545 )" />
  </g>
</svg>