<?xml version="1.0" encoding="utf-8"?>
<svg version="1.1" xmlns:xlink="http://www.w3.org/1999/xlink" width="23px" height="23px" xmlns="http://www.w3.org/2000/svg">
  <g transform="matrix(1 0 0 1 -494 -4366 )">
    <path d="M 505.5 4366  C 511.94 4366  517 4371.06  517 4377.5  C 517 4383.94  511.94 4389  505.5 4389  C 499.06 4389  494 4383.94  494 4377.5  C 494 4371.06  499.06 4366  505.5 4366  Z " fill-rule="nonzero" fill="#ffffff" stroke="none" />
    <path d="M 505.5 4366.5  C 511.66 4366.5  516.5 4371.34  516.5 4377.5  C 516.5 4383.66  511.66 4388.5  505.5 4388.5  C 499.34 4388.5  494.5 4383.66  494.5 4377.5  C 494.5 4371.34  499.34 4366.5  505.5 4366.5  Z " stroke-width="1" stroke="#c9c9c9" fill="none" />
  </g>
</svg>