<?xml version="1.0" encoding="utf-8"?>
<svg version="1.1" xmlns:xlink="http://www.w3.org/1999/xlink" width="23px" height="23px" xmlns="http://www.w3.org/2000/svg">
  <g transform="matrix(1 0 0 1 -1228 -2924 )">
    <path d="M 1239.5 2924  C 1245.94 2924  1251 2929.06  1251 2935.5  C 1251 2941.94  1245.94 2947  1239.5 2947  C 1233.06 2947  1228 2941.94  1228 2935.5  C 1228 2929.06  1233.06 2924  1239.5 2924  Z " fill-rule="nonzero" fill="#e1e1e1" stroke="none" />
    <path d="M 1239.5 2924.5  C 1245.66 2924.5  1250.5 2929.34  1250.5 2935.5  C 1250.5 2941.66  1245.66 2946.5  1239.5 2946.5  C 1233.34 2946.5  1228.5 2941.66  1228.5 2935.5  C 1228.5 2929.34  1233.34 2924.5  1239.5 2924.5  Z " stroke-width="1" stroke="#c9c9c9" fill="none" />
  </g>
</svg>