<?xml version="1.0" encoding="UTF-8"?>
<svg width="180px" height="36px" viewBox="0 0 180 36" version="1.1" xmlns="http://www.w3.org/2000/svg" xmlns:xlink="http://www.w3.org/1999/xlink">
    <!-- Generator: Sketch 55.1 (78136) - https://sketchapp.com -->
    <title>2</title>
    <desc>Created with Sketch.</desc>
    <g id="产品空白页提示" stroke="none" stroke-width="1" fill="none" fill-rule="evenodd">
        <g id="产品空白提示复制-3" transform="translate(-320.000000, -481.000000)">
            <g id="编组-2" transform="translate(320.000000, 481.000000)">
                <g id="上传文件">
                    <g id="2">
                        <g id="文档/word/灰">
                            <g id="word">
                                <rect id="矩形" fill="#DAE0ED" x="0" y="0" width="36" height="36" rx="4"></rect>
                                <path d="M0,25.5035419 L36,25.5035419 L36,32 C36,34.209139 34.209139,36 32,36 L4,36 C1.790861,36 2.705415e-16,34.209139 0,32 L0,25.5035419 Z" id="矩形-copy-15" fill="#C1C9DB"></path>
                                <path d="M6.345,27.774 L7.533,27.774 L8.739,32.661 L8.775,32.661 L10.044,27.774 L11.133,27.774 L12.402,32.661 L12.438,32.661 L13.644,27.774 L14.832,27.774 L12.978,34.2 L11.862,34.2 L10.611,29.367 L10.575,29.367 L9.315,34.2 L8.19,34.2 L6.345,27.774 Z M17.577,29.421 C18.279,29.421 18.846,29.646 19.278,30.114 C19.701,30.573 19.917,31.158 19.917,31.878 C19.917,32.589 19.701,33.174 19.287,33.624 C18.855,34.092 18.279,34.326 17.577,34.326 C16.866,34.326 16.299,34.092 15.867,33.624 C15.444,33.174 15.237,32.589 15.237,31.878 C15.237,31.158 15.444,30.573 15.876,30.114 C16.299,29.646 16.866,29.421 17.577,29.421 Z M17.577,30.258 C17.145,30.258 16.821,30.42 16.587,30.762 C16.389,31.05 16.29,31.428 16.29,31.878 C16.29,32.328 16.389,32.697 16.587,32.985 C16.821,33.318 17.145,33.489 17.577,33.489 C18,33.489 18.333,33.318 18.567,32.985 C18.765,32.688 18.873,32.319 18.873,31.878 C18.873,31.428 18.765,31.05 18.567,30.762 C18.333,30.42 18,30.258 17.577,30.258 Z M23.013,29.421 C23.238,29.421 23.436,29.457 23.598,29.538 L23.598,30.564 C23.364,30.492 23.148,30.465 22.932,30.465 C22.662,30.465 22.419,30.564 22.203,30.78 C21.951,31.023 21.834,31.338 21.834,31.734 L21.834,34.2 L20.817,34.2 L20.817,29.547 L21.834,29.547 L21.834,30.213 C21.96,29.979 22.104,29.799 22.275,29.673 C22.482,29.502 22.725,29.421 23.013,29.421 Z M27.495,27.648 L28.521,27.648 L28.521,34.2 L27.567,34.2 L27.567,33.705 C27.243,34.119 26.775,34.326 26.163,34.326 C25.47,34.326 24.93,34.083 24.543,33.597 C24.183,33.147 24.003,32.562 24.003,31.851 C24.003,31.167 24.174,30.6 24.534,30.15 C24.912,29.664 25.443,29.421 26.109,29.421 C26.649,29.421 27.108,29.673 27.495,30.186 L27.495,27.648 Z M26.352,30.249 C25.884,30.249 25.551,30.402 25.335,30.708 C25.146,30.969 25.056,31.347 25.056,31.851 C25.056,32.355 25.137,32.742 25.317,33.012 C25.524,33.336 25.857,33.498 26.316,33.498 C26.712,33.498 27.027,33.336 27.243,33.021 C27.432,32.733 27.531,32.355 27.531,31.905 L27.531,31.833 C27.531,31.338 27.405,30.942 27.171,30.654 C26.955,30.384 26.676,30.249 26.352,30.249 Z" id="Word" fill="#FFFFFF" fill-rule="nonzero"></path>
                                <polygon id="路径" fill="#A7B2C8" fill-rule="nonzero" points="23.1270968 6.3 20.1164516 6.3 20.1164516 8.37290323 21.7451613 8.37290323 20.2151613 16.0229032 18.5864516 6.3 16.5135484 6.3 14.8848387 16.0229032 12.96 6.3 9.9 6.3 13.5029032 21.6 15.5264516 21.6 17.55 12.42 19.5735484 21.6 21.5970968 21.6 25.2 6.3"></polygon>
                            </g>
                        </g>
                        <g id="文档/pdf/灰" transform="translate(144.000000, 0.000000)">
                            <g id="pdf">
                                <g id="分组-10" transform="translate(-0.000000, 0.000000)">
                                    <rect id="矩形" fill="#DAE0ED" x="1.8189894e-12" y="0" width="36" height="36" rx="4"></rect>
                                    <path d="M25.4053885,17.3860191 C23.9135446,17.3119034 22.4217008,16.6448624 21.3028179,15.7554745 C18.99046,16.2742841 16.8272864,16.9413251 14.6641129,17.9048287 C12.9484925,20.943571 11.3820564,22.5 9.96480479,22.5 C9.66643602,22.5 9.29347507,22.4258843 9.06969849,22.277653 C8.47296096,22.055306 8.1,21.388265 8.1,20.7953397 C8.1,20.27653 8.17459219,18.9424481 13.54523,16.7189781 C14.7387051,14.4955081 15.7084035,12.1979225 16.5289177,9.82622122 C15.8575879,8.49213925 14.3657441,5.23104997 15.484627,3.60050533 C15.7829957,2.93346435 16.5289177,2.63700168 17.2002474,2.71111735 C17.7969849,2.71111735 18.2445381,2.93346435 18.617499,3.452274 C19.3634209,4.48989332 19.2888287,6.56513195 18.3937224,9.60387423 C19.2888287,11.2344189 20.4823038,12.7908478 21.7503711,14.0508141 C22.9438461,13.8284672 24.062729,13.6061202 25.2562041,13.6061202 C27.8669308,13.6802358 28.3144839,14.8660865 28.2398917,15.6072431 C28.0907074,17.3860191 26.3004948,17.3860191 25.4053885,17.3860191 L25.4053885,17.3860191 Z M9.83684211,20.7631579 L9.99716599,20.6842105 C10.8789474,20.3684211 11.440081,19.8157895 11.9210526,19.0263158 C11.1194332,19.4210526 10.3979757,19.9736842 9.83684211,20.7631579 L9.83684211,20.7631579 Z M17.2814163,4.08947368 L17.1262707,4.08947368 C17.048698,4.08947368 16.9711252,4.08947368 16.8935524,4.16763158 C16.6608341,5.18368421 16.8159797,6.12157895 17.2038435,7.21578947 C17.5141345,6.12157895 17.5917073,5.02736842 17.2814163,4.08947368 Z M17.4723932,12.0789474 L17.3282026,12.0789474 C16.8235353,13.3526316 16.3188679,14.6263158 15.7421053,15.9 L15.8142006,15.8250774 L15.8142006,15.9 C17.0398213,15.3755418 18.1933466,15.0758514 19.4910626,14.8510836 L19.4189672,14.776161 L19.5631579,14.776161 C18.8422046,14.026935 18.1212512,13.0529412 17.4723932,12.0789474 L17.4723932,12.0789474 Z M25.1911814,15.2052632 C24.6534331,15.2052632 24.192506,15.2052632 23.7315789,15.2878302 C24.3461484,15.5355314 24.8070755,15.7832325 25.4216449,15.8657996 C25.882572,15.9483667 26.2666779,15.8657996 26.4971414,15.7832325 C26.5739626,15.5355314 26.343499,15.2052632 25.1911814,15.2052632 Z" id="形状" fill="#A7B2C8" fill-rule="nonzero"></path>
                                    <path d="M-3.73034936e-13,25.5035419 L36,25.5035419 L36,32 C36,34.209139 34.209139,36 32,36 L4,36 C1.790861,36 -3.72764395e-13,34.209139 -3.73034936e-13,32 L-3.73034936e-13,25.5035419 Z" id="矩形-copy-15" fill="#C1C9DB"></path>
                                    <path d="M9.9,27.9 L12.3,27.9 C13.700007,27.9 14.4,28.5441112 14.4,29.8323529 C14.4,31.1323594 13.6946016,31.7823529 12.2837838,31.7823529 L10.8486486,31.7823529 L10.8486486,34.2 L9.9,34.2 L9.9,27.9 Z M10.8,28.8 L10.8,30.6 L12.234375,30.6 C12.6675022,30.6 12.988124,30.5300007 13.19625,30.39 C13.398751,30.2449993 13.5,30.0125016 13.5,29.6925 C13.5,29.3774984 13.3959385,29.1500007 13.1878125,29.01 C12.9909365,28.8699993 12.6731272,28.8 12.234375,28.8 L10.8,28.8 Z M16.2,27.9 L18.5104918,27.9 C19.5314805,27.9 20.3075383,28.1823501 20.8386885,28.7470588 C21.346232,29.2823556 21.6,30.049995 21.6,31.05 C21.6,32.0441226 21.346232,32.811762 20.8386885,33.3529412 C20.3075383,33.9176499 19.5314805,34.2 18.5104918,34.2 L16.2,34.2 L16.2,27.9 Z M17.1,28.8 L17.1,33.3 L18.2649867,33.3 C19.1116753,33.3 19.7323588,33.119068 20.1270557,32.7571984 C20.5090205,32.3894923 20.7,31.8204319 20.7,31.05 C20.7,30.2562217 20.5090205,29.684243 20.1270557,29.3340467 C19.7387248,28.9780138 19.1180414,28.8 18.2649867,28.8 L17.1,28.8 Z M23.4,27.9 L27.9,27.9 L27.9,28.7823529 L24.4811088,28.7823529 L24.4811088,30.5294118 L27.7059548,30.5294118 L27.7059548,31.4117647 L24.4811088,31.4117647 L24.4811088,34.2 L23.4,34.2 L23.4,27.9 Z" id="PDF" fill="#FFFFFF" fill-rule="nonzero"></path>
                                </g>
                            </g>
                        </g>
                        <g id="文档/ppt/灰" transform="translate(48.000000, 0.000000)">
                            <g id="pdf复制">
                                <g id="分组-10" transform="translate(-0.000000, 0.000000)">
                                    <rect id="矩形" fill="#DAE0ED" x="1.8189894e-12" y="0" width="36" height="36" rx="4"></rect>
                                    <g id="编组" transform="translate(12.600000, 5.400000)">
                                        <path d="M4.70824868,10.83909 L4.70824868,16.2 L2.18847791,16.2 L2.18847791,2.14436401 L0,2.14436401 L0,0 L7.6851201,0 C10.9254246,0 13.1478324,2.19462254 13.1139025,5.44467425 C13.1308675,8.69472596 10.9423896,10.83909 7.65119021,10.83909 L4.70824868,10.83909 Z" id="路径" fill="#A7B2C8"></path>
                                        <path d="M4.62857143,2.31428571 L7.71428571,2.31428571 C9.41847866,2.31428571 10.8,3.69580706 10.8,5.4 C10.8,7.10419294 9.41847866,8.48571429 7.71428571,8.48571429 L4.62857143,8.48571429 L4.62857143,2.31428571 Z" id="矩形" fill="#DAE0ED"></path>
                                    </g>
                                    <path d="M-3.69482223e-13,25.5035419 L36,25.5035419 L36,32 C36,34.209139 34.209139,36 32,36 L4,36 C1.790861,36 -3.69211681e-13,34.209139 -3.69482223e-13,32 L-3.69482223e-13,25.5035419 Z" id="矩形-copy-15" fill="#C1C9DB"></path>
                                    <path d="M10.8675,27.774 L13.5315,27.774 C15.0795,27.774 15.8625,28.431 15.8625,29.745 C15.8625,31.068 15.0795,31.734 13.5135,31.734 L11.9205,31.734 L11.9205,34.2 L10.8675,34.2 L10.8675,27.774 Z M11.9205,28.674 L11.9205,30.834 L13.4505,30.834 C13.9185,30.834 14.2605,30.744 14.4765,30.582 C14.6925,30.411 14.8005,30.132 14.8005,29.745 C14.8005,29.358 14.6835,29.088 14.4675,28.926 C14.2515,28.755 13.9095,28.674 13.4505,28.674 L11.9205,28.674 Z M16.7625,27.774 L19.4265,27.774 C20.9745,27.774 21.7575,28.431 21.7575,29.745 C21.7575,31.068 20.9745,31.734 19.4085,31.734 L17.8155,31.734 L17.8155,34.2 L16.7625,34.2 L16.7625,27.774 Z M17.8155,28.674 L17.8155,30.834 L19.3455,30.834 C19.8135,30.834 20.1555,30.744 20.3715,30.582 C20.5875,30.411 20.6955,30.132 20.6955,29.745 C20.6955,29.358 20.5785,29.088 20.3625,28.926 C20.1465,28.755 19.8045,28.674 19.3455,28.674 L17.8155,28.674 Z M22.1625,27.774 L27.4275,27.774 L27.4275,28.674 L25.3215,28.674 L25.3215,34.2 L24.2685,34.2 L24.2685,28.674 L22.1625,28.674 L22.1625,27.774 Z" id="PPT" fill="#FFFFFF" fill-rule="nonzero"></path>
                                </g>
                            </g>
                        </g>
                        <g id="文档/excle/灰" transform="translate(96.000000, 0.000000)">
                            <g id="x">
                                <g id="分组-10" transform="translate(-0.000000, 0.000000)">
                                    <rect id="矩形" fill="#DAE0ED" x="1.8189894e-12" y="0" width="36" height="36" rx="4"></rect>
                                    <polygon id="路径" fill="#A7B2C8" fill-rule="nonzero" points="17.1611191 13.2679589 12.0581062 6.3 15.5840746 6.3 18.9241033 11.2838393 22.4156385 6.3 25.8314204 6.3 20.6182209 13.2612331 26.1 20.659645 22.5395983 20.659645 18.8621234 15.386595 15.1846485 20.7 11.7 20.7"></polygon>
                                    <path d="M0,25.2 L36,25.2 L36,31.6964581 C36,33.9055971 34.209139,35.6964581 32,35.6964581 L4,35.6964581 C1.790861,35.6964581 2.705415e-16,33.9055971 0,31.6964581 L0,25.2 Z" id="矩形-copy-15" fill="#C1C9DB"></path>
                                    <path d="M7.1055,27.774 L11.7405,27.774 L11.7405,28.674 L8.1585,28.674 L8.1585,30.456 L11.5245,30.456 L11.5245,31.356 L8.1585,31.356 L8.1585,33.3 L11.8935,33.3 L11.8935,34.2 L7.1055,34.2 L7.1055,27.774 Z M12.5055,29.547 L13.7025,29.547 L14.6745,30.969 L15.6375,29.547 L16.8345,29.547 L15.2325,31.725 L17.0415,34.2 L15.8355,34.2 L14.6745,32.481 L13.5045,34.2 L12.2985,34.2 L14.1075,31.725 L12.5055,29.547 Z M19.7145,29.421 C20.3175,29.421 20.7945,29.556 21.1545,29.826 C21.5235,30.114 21.7575,30.546 21.8475,31.131 L20.8305,31.131 C20.7675,30.834 20.6415,30.618 20.4615,30.474 C20.2725,30.33 20.0205,30.258 19.7145,30.258 C19.3365,30.258 19.0395,30.393 18.8235,30.681 C18.6075,30.96 18.4995,31.356 18.4995,31.86 C18.4995,32.373 18.5985,32.778 18.8145,33.066 C19.0125,33.345 19.3095,33.489 19.7055,33.489 C20.3895,33.489 20.7675,33.147 20.8485,32.472 L21.8655,32.472 C21.7575,33.102 21.5145,33.57 21.1455,33.876 C20.7855,34.173 20.2995,34.326 19.6965,34.326 C18.9765,34.326 18.4185,34.092 18.0225,33.624 C17.6355,33.174 17.4465,32.589 17.4465,31.869 C17.4465,31.167 17.6355,30.591 18.0135,30.15 C18.4185,29.664 18.9855,29.421 19.7145,29.421 Z M24.6555,29.421 C25.4205,29.421 26.0055,29.673 26.4105,30.195 C26.7795,30.663 26.9685,31.32 26.9685,32.157 L23.4855,32.157 C23.5215,32.589 23.6385,32.922 23.8365,33.147 C24.0345,33.372 24.3225,33.489 24.6915,33.489 C25.0065,33.489 25.2585,33.417 25.4565,33.273 C25.6095,33.156 25.7445,32.967 25.8705,32.706 L26.8965,32.706 C26.7885,33.138 26.5725,33.507 26.2485,33.795 C25.8345,34.146 25.3215,34.326 24.7005,34.326 C24.0075,34.326 23.4585,34.11 23.0535,33.687 C22.6215,33.246 22.4055,32.643 22.4055,31.869 C22.4055,31.176 22.6035,30.6 23.0175,30.132 C23.4135,29.655 23.9625,29.421 24.6555,29.421 Z M24.6825,30.258 C24.3405,30.258 24.0795,30.348 23.8815,30.546 C23.6925,30.735 23.5665,31.014 23.5035,31.383 L25.8975,31.383 C25.8075,30.627 25.4025,30.258 24.6825,30.258 Z M27.8685,27.648 L28.8945,27.648 L28.8945,34.2 L27.8685,34.2 L27.8685,27.648 Z" id="Excel" fill="#FFFFFF" fill-rule="nonzero"></path>
                                </g>
                            </g>
                        </g>
                    </g>
                </g>
            </g>
        </g>
    </g>
</svg>