<?xml version="1.0" encoding="UTF-8"?>
<svg width="36px" height="36px" viewBox="0 0 36 36" version="1.1" xmlns="http://www.w3.org/2000/svg" xmlns:xlink="http://www.w3.org/1999/xlink">
    <!-- Generator: Sketch 55.1 (78136) - https://sketchapp.com -->
    <title>3</title>
    <desc>Created with Sketch.</desc>
    <g id="产品空白页提示" stroke="none" stroke-width="1" fill="none" fill-rule="evenodd">
        <g id="产品空白提示复制-3" transform="translate(-1002.000000, -481.000000)">
            <g id="编组-2" transform="translate(320.000000, 481.000000)">
                <g id="编组-4" transform="translate(600.000000, 0.000000)">
                    <g id="文档/链接/灰" transform="translate(82.000000, 0.000000)">
                        <g id="链接">
                            <g id="lianjie" transform="translate(-0.000000, 0.000000)">
                                <rect id="矩形" fill="#DAE0ED" x="0" y="0" width="36" height="36" rx="4"></rect>
                                <path d="M18.5274951,18.5779881 L20.0338717,17.0669821 L21.4326499,18.4700591 L19.9262734,19.981065 C18.9578884,21.060355 17.5591102,21.6 16.1603319,21.6 C14.0083654,21.6 12.0715955,20.304852 11.2108089,18.2542011 C10.3500223,16.3114791 10.8880139,13.9370412 12.3943905,12.4260352 L13.9007671,10.9150292 L15.4071436,12.4260352 L13.9007671,13.9370412 C12.7171855,15.2321891 12.7171855,17.1749111 14.0083654,18.4700591 C15.2995453,19.765207 17.2363152,19.765207 18.5274951,18.5779881 Z M24.5530014,7.89301731 C26.5973696,10.0515973 26.5973696,13.3973962 24.6605997,15.5559761 L23.1542232,17.0669821 L21.6478466,15.5559761 L23.1542232,14.0449702 C24.3378048,12.7498222 24.2302064,10.6991712 23.0466248,9.51195227 C21.7554449,8.21680429 19.818675,8.21680429 18.5274951,9.40402327 L17.0211185,10.9150292 L15.514742,9.40402327 L17.0211185,7.78508831 C19.1730851,5.73443736 22.5086332,5.84236636 24.5530014,7.89301731 Z M15.9,15.0431147 L20.2716862,10.6714286 L21.7285714,12.1283138 L17.3568853,16.5 L15.9,15.0431147 Z" id="合并形状" fill="#A7B2C8" fill-rule="nonzero"></path>
                                <path d="M0,25.2 L36,25.2 L36,32 C36,34.209139 34.209139,36 32,36 L4,36 C1.790861,36 2.705415e-16,34.209139 0,32 L0,25.2 Z" id="矩形-copy-15" fill="#C1C9DB"></path>
                                <path d="M4.0104,28.5192 L6.8616,28.5192 C6.6816,28.188 6.4584,27.8784 6.1992,27.5832 L6.9552,27.3096 C7.2144,27.648 7.452,28.0512 7.668,28.5192 L10.3896,28.5192 L10.3896,29.268 L9.3024,29.268 C8.9568,30.348 8.4528,31.248 7.7904,31.9752 C8.532,32.5656 9.4536,33.0552 10.548,33.4584 L10.1304,34.0992 C8.9784,33.6672 8.0208,33.1344 7.2576,32.5008 C6.4512,33.2136 5.4576,33.7392 4.284,34.0704 L3.8808,33.408 C5.0256,33.1128 5.976,32.652 6.7248,32.0184 C5.9472,31.2264 5.4072,30.312 5.1048,29.268 L4.0104,29.268 L4.0104,28.5192 Z M5.8248,29.268 C6.12,30.1176 6.5952,30.8592 7.2576,31.5072 C7.8192,30.888 8.244,30.1392 8.5248,29.268 L5.8248,29.268 Z M13.7736,29.808 L15.2712,29.808 L15.2712,27.396 L16.0344,27.396 L16.0344,29.808 L17.5032,29.808 L17.5032,34.056 L16.7544,34.056 L16.7544,33.804 L13.6728,33.804 L13.6728,33.0696 L16.7544,33.0696 L16.7544,32.1552 L13.9536,32.1552 L13.9536,31.4424 L16.7544,31.4424 L16.7544,30.528 L13.7736,30.528 L13.7736,29.808 Z M17.0136,27.7416 L17.676,28.0584 C17.4888,28.5768 17.244,29.0808 16.9416,29.5704 L16.308,29.2392 C16.6032,28.7352 16.8408,28.2384 17.0136,27.7416 Z M14.256,27.792 C14.5008,28.2312 14.7384,28.7136 14.9688,29.2392 L14.3208,29.5632 C14.0904,29.0304 13.8528,28.548 13.5936,28.116 L14.256,27.792 Z M12.8304,30.6144 L12.8304,34.0272 L12.0744,34.0272 L12.0744,30.816 C11.8728,31.3776 11.6208,31.9032 11.3328,32.3784 L11.0016,31.5576 C11.484,30.9384 11.8368,30.2328 12.0528,29.4408 L11.1816,29.4408 L11.1816,28.7136 L12.0744,28.7136 L12.0744,27.3888 L12.8304,27.3888 L12.8304,28.7136 L13.608,28.7136 L13.608,29.4408 L12.8304,29.4408 L12.8304,29.736 C13.1472,30.0672 13.464,30.4344 13.7808,30.8304 L13.356,31.464 C13.1544,31.1256 12.9816,30.8448 12.8304,30.6144 Z M22.0248,31.3488 L23.2776,31.3488 L23.2776,30.6864 L22.176,30.6864 L22.032,30.0672 C22.2336,29.7288 22.428,29.304 22.6008,28.7856 L21.9816,28.7856 L21.9816,28.1304 L22.8024,28.1304 C22.8672,27.8928 22.932,27.648 22.9896,27.396 L23.652,27.5544 C23.6016,27.756 23.5512,27.9432 23.5008,28.1304 L24.7608,28.1304 L24.7608,28.7856 L23.2992,28.7856 C23.1408,29.2536 22.9752,29.6712 22.7952,30.0312 L23.2776,30.0312 L23.2776,29.1384 L23.9688,29.1384 L23.9688,30.0312 L24.6888,30.0312 L24.6888,30.6864 L23.9688,30.6864 L23.9688,31.3488 L24.8976,31.3488 L24.8976,32.0112 L23.9688,32.0112 L23.9688,33.048 L23.2776,33.048 L23.2776,32.0112 L22.0248,32.0112 L22.0248,31.3488 Z M21.096,27.4968 C21.3984,27.9432 21.636,28.3248 21.8088,28.656 L21.2472,29.0448 C21.0744,28.6848 20.8368,28.2816 20.5488,27.8424 L21.096,27.4968 Z M23.8176,33.2568 C24.2208,33.2568 24.6096,33.2496 24.9696,33.2352 L24.7752,33.9408 L23.76,33.9408 C23.544,33.9408 23.328,33.9336 23.112,33.9264 C22.7952,33.9192 22.5,33.876 22.2408,33.7968 C21.996,33.7104 21.7872,33.5736 21.6216,33.3864 C21.528,33.2856 21.4488,33.2424 21.384,33.2424 C21.2904,33.2424 21.1032,33.5088 20.8152,34.056 L20.3832,33.4872 C20.6496,33.0696 20.88,32.7816 21.0744,32.6376 L21.0744,30.3984 L20.5992,30.3984 L20.5992,29.736 L21.7584,29.736 L21.7584,32.7024 C21.888,32.868 22.0608,32.9976 22.2624,33.0984 C22.4784,33.1704 22.7232,33.2208 22.9968,33.2424 C23.2704,33.2496 23.544,33.2568 23.8176,33.2568 Z M18.9504,27.4104 L19.6632,27.5616 C19.62,27.7632 19.5768,27.9504 19.5336,28.1304 L20.4768,28.1304 L20.4768,28.8432 L19.332,28.8432 C19.2456,29.1096 19.152,29.3616 19.0512,29.592 L20.3832,29.592 L20.3832,30.2616 L19.8792,30.2616 L19.8792,30.9384 L20.5848,30.9384 L20.5848,31.6296 L19.8792,31.6296 L19.8792,32.976 C20.0376,32.8752 20.2032,32.76 20.3616,32.6232 L20.4912,33.2712 C20.1312,33.5232 19.7136,33.732 19.2384,33.8976 L18.9576,33.2784 C19.0872,33.2208 19.1592,33.1272 19.1592,32.9976 L19.1592,31.6296 L18.4392,31.6296 L18.4392,30.9384 L19.1592,30.9384 L19.1592,30.2616 L18.9,30.2616 L18.9,29.9232 L18.7992,30.1248 L18.2088,29.7504 C18.5616,29.016 18.8064,28.2384 18.9504,27.4104 Z M29.0304,28.6344 L28.0584,28.6344 L28.0584,27.9576 L29.52,27.9576 C29.448,27.7776 29.376,27.612 29.2896,27.4536 L30.0672,27.324 C30.1392,27.5112 30.204,27.7272 30.276,27.9576 L31.8384,27.9576 L31.8384,28.6344 L30.9816,28.6344 L31.3416,28.764 C31.2264,29.0664 31.0968,29.34 30.9528,29.592 L31.968,29.592 L31.968,30.3048 L27.8856,30.3048 L27.8856,29.592 L28.872,29.592 C28.7568,29.3328 28.6272,29.1024 28.4976,28.8936 L29.0304,28.6344 Z M29.5848,29.592 L30.1608,29.592 C30.3264,29.2896 30.4704,28.9656 30.5928,28.6344 L29.124,28.6344 C29.2896,28.9296 29.4408,29.2464 29.5848,29.592 Z M26.3808,33.984 L25.7472,33.984 L25.5816,33.2568 C25.7688,33.2856 25.9488,33.3 26.1216,33.3 C26.28,33.3 26.3592,33.2136 26.3592,33.0552 L26.3592,31.5936 C26.1072,31.6872 25.8552,31.7736 25.6032,31.86 L25.4088,31.104 C25.7328,31.032 26.0496,30.9456 26.3592,30.8304 L26.3592,29.412 L25.56,29.412 L25.56,28.6848 L26.3592,28.6848 L26.3592,27.4104 L27.1224,27.4104 L27.1224,28.6848 L27.6408,28.6848 L27.6408,29.412 L27.1224,29.412 L27.1224,30.5136 C27.2952,30.4272 27.4608,30.3408 27.6264,30.2544 L27.6264,31.0176 C27.4536,31.104 27.288,31.1832 27.1224,31.2624 L27.1224,33.2496 C27.1224,33.7392 26.8704,33.984 26.3808,33.984 Z M29.1888,30.384 L29.916,30.4704 C29.8584,30.6216 29.7936,30.7656 29.736,30.9096 L32.0904,30.9096 L32.0904,31.6296 L31.356,31.6296 C31.248,32.0904 31.0536,32.4792 30.78,32.8104 C31.2192,33.0048 31.644,33.2136 32.0544,33.444 L31.644,34.0416 C31.2696,33.8112 30.8088,33.5592 30.2472,33.3 C29.7648,33.6312 29.0232,33.8904 28.0224,34.092 L27.7344,33.4152 C28.44,33.2856 29.0088,33.1272 29.4336,32.9328 C29.0304,32.76 28.6056,32.58 28.1448,32.4 C28.3176,32.1336 28.4688,31.8744 28.6128,31.6296 L27.792,31.6296 L27.792,30.9096 L28.9728,30.9096 C29.0592,30.7224 29.1312,30.5496 29.1888,30.384 Z M30.6504,31.6296 L29.3688,31.6296 C29.268,31.7952 29.1672,31.9536 29.0664,32.1048 C29.412,32.2272 29.7576,32.364 30.096,32.508 C30.348,32.2632 30.5352,31.9752 30.6504,31.6296 Z" id="文档链接" fill="#FFFFFF" fill-rule="nonzero"></path>
                            </g>
                        </g>
                    </g>
                </g>
            </g>
        </g>
    </g>
</svg>